<?xml version="1.0" encoding="utf-8"?>
<!-- Generator: Adobe Illustrator 19.2.1, SVG Export Plug-In . SVG Version: 6.00 Build 0)  -->
<svg version="1.1" id="Capa_1" xmlns="http://www.w3.org/2000/svg" xmlns:xlink="http://www.w3.org/1999/xlink" x="0px" y="0px"
	 viewBox="0 0 458 95" style="enable-background:new 0 0 458 95;" xml:space="preserve">
<style type="text/css">
	.st0{fill:#4B4C4C;}
	.st1{fill:#CBCBCB;}
	.st2{fill:#DCC148;}
	.st3{fill:#FFFFFF;}
</style>
<g>
	<path class="st0" d="M165.2,12.8c4.2,0,7.5,1.3,10,3.9c2.5,2.6,3.7,6.6,3.7,11.9v10c0,5.4-1.2,9.4-3.7,11.9
		c-2.5,2.6-5.8,3.9-10,3.9H159v27.1H151V12.8H165.2z M159,46.6h5.5c4.2,0,6.3-2.5,6.3-7.5V28c0-5-2.1-7.5-6.3-7.5H159V46.6z"/>
	<path class="st0" d="M198.4,12.8c4.2,0,7.5,1.2,10,3.6c2.4,2.4,3.6,5.7,3.6,10v9.6c0,2.8-0.4,4.9-1.2,6.4c-0.8,1.5-2,2.6-3.6,3.3
		c1.7,0.7,3,1.8,3.9,3.4c0.9,1.6,1.4,3.8,1.4,6.6v25.8h-8V55.4c0-2.2-0.4-3.7-1.3-4.6c-0.8-0.9-2.5-1.4-5-1.4h-6v32h-7.9V12.8H198.4
		z M192.4,42.5h5.4c2.4,0,4.1-0.5,5-1.4c0.9-1,1.4-2.6,1.4-4.8v-9c0-4.6-2.1-6.9-6.3-6.9h-5.4V42.5z"/>
	<path class="st0" d="M241.5,12.8v7.8h-14.7v21.6h10.4V50h-10.4v23.7h14.7v7.8h-22.7V12.8H241.5z"/>
	<path class="st0" d="M255.8,12.8l10.7,54.5l11.3-54.5h8.1v68.7h-7.2V37.2l-8.4,44.3h-7.5l-8.6-44.9v44.9H247V12.8H255.8z"/>
	<path class="st0" d="M300.9,12.8v68.7h-8.1V12.8H300.9z"/>
	<path class="st0" d="M335.6,68.9c0,2.2-0.4,4.1-1.1,5.8c-0.7,1.7-1.7,3.1-3,4.3c-1.3,1.2-2.8,2.1-4.5,2.7c-1.7,0.6-3.6,0.9-5.5,0.9
		c-2,0-3.8-0.3-5.6-0.9c-1.7-0.6-3.2-1.5-4.5-2.7c-1.3-1.2-2.3-2.6-3-4.3c-0.7-1.7-1.1-3.6-1.1-5.8V25.3c0-2.2,0.4-4.1,1.1-5.8
		c0.7-1.7,1.7-3.1,3-4.3c1.3-1.2,2.7-2.1,4.5-2.7c1.7-0.6,3.6-1,5.6-1c1.9,0,3.8,0.3,5.5,1c1.7,0.6,3.2,1.6,4.5,2.7
		c1.3,1.2,2.3,2.6,3,4.3c0.7,1.7,1.1,3.6,1.1,5.8V68.9z M315.4,68.9c0,2,0.6,3.5,1.7,4.5c1.1,1,2.6,1.5,4.4,1.5
		c1.8,0,3.3-0.5,4.4-1.5c1.1-1,1.7-2.5,1.7-4.5V25.4c0-2-0.6-3.5-1.7-4.5c-1.1-1-2.6-1.5-4.4-1.5c-1.8,0-3.3,0.5-4.4,1.5
		c-1.1,1-1.7,2.5-1.7,4.5V68.9z"/>
	<path class="st0" d="M366.4,12.8v68.7h-8.1V12.8H366.4z"/>
	<path class="st0" d="M382.1,12.8l11.7,47.4V12.8h7v68.7h-7.2l-13.3-50.6v50.6h-7V12.8H382.1z"/>
	<path class="st0" d="M428.9,12.8v7.8h-7.7v60.9h-8.1V20.6h-7.7v-7.8H428.9z"/>
	<path class="st0" d="M456.3,12.8v7.8h-14.7v21.6H452V50h-10.4v23.7h14.7v7.8h-22.7V12.8H456.3z"/>
</g>
<polygon class="st1" points="102.9,78.6 108.9,78.6 114.8,78.6 120.8,78.6 126.7,78.6 132.7,78.6 132.7,48.4 91,48.4 91,78.6 
	96.9,78.6 "/>
<polygon class="st2" points="31.3,78.6 31.3,48.4 18.4,48.4 18.4,54.4 18.4,60.5 18.4,66.5 18.4,72.6 18.4,78.6 24.8,78.6 "/>
<path class="st3" d="M27.7,44.1h8v34.5h51V44.1h23V25.4h-82V44.1z M62,47.1l7.1,4.6l-7.1,5V47.1z"/>
<g>
	<path class="st0" d="M132.7,44.6h-19.2v-0.5V25.4v-3.8h-3.8h-82h-3.8v3.8v18.7v0.5h-5.5h-3.8v3.8v6v6v6v6v6v3.8l121.9,0v-3.8V48.4
		v-3.8H132.7z M132.7,78.6h-6h-6h-6h-6h-6h-6h-6V48.4h41.7V78.6z M86.6,78.6h-51V44.1h-8V25.4h82v18.7h-23V78.6z M31.3,78.6h-6.5
		h-6.5v-6v-6v-6v-6v-6h12.9V78.6z"/>
	<polygon class="st0" points="62,56.8 69,51.8 62,47.1 	"/>
</g>
</svg>
